# xmcd
#
# Track frame offsets: 
#        150
#        24946
#        42504
#        77895
#        91762
#        113953
#        131609
#        160780
#        184072
#        197876
#        218702
#        239646
#        256055
#        308144
#
# Disc length: 4475 seconds
#
# Revision: 0
# Processed by: cddbd v1.5.2PL0 Copyright (c) Steve Scherf et al.
# Submitted via: ExactAudioCopy v1.3
#
DISCID=b911790e
DTITLE=Seth Yacovone Band - Standing On The Sound
DYEAR=2002
DGENRE=Blues Rock
TTITLE0=Once There Was A Way
TTITLE1=Wage
TTITLE2=Sweat Sauce
TTITLE3=Breathe Easy
TTITLE4=Let's Not Pretend
TTITLE5=I Got Nothing
TTITLE6=Except A Song
TTITLE7=Maybe Next Year
TTITLE8=The Untitled One
TTITLE9=All
TTITLE10=360
TTITLE11=M.U.T.E.
TTITLE12=Gnashing Golgotha Footstomp Shindig Blues
TTITLE13=Nighttime Fades
EXTD=
EXTT0=
EXTT1=
EXTT2=
EXTT3=
EXTT4=
EXTT5=
EXTT6=
EXTT7=
EXTT8=
EXTT9=
EXTT10=
EXTT11=
EXTT12=
EXTT13=
PLAYORDER=
